<?xml version="1.0" standalone="no"?>
<!DOCTYPE svg PUBLIC "-//W3C//DTD SVG 20010904//EN"
 "http://www.w3.org/TR/2001/REC-SVG-20010904/DTD/svg10.dtd">
<svg version="1.0" xmlns="http://www.w3.org/2000/svg"
 width="512.000000pt" height="512.000000pt" viewBox="0 0 512.000000 512.000000"
 preserveAspectRatio="xMidYMid meet">
<metadata>
Created by potrace 1.14, written by Peter Selinger 2001-2017
</metadata>
<g transform="translate(0.000000,512.000000) scale(0.100000,-0.100000)"
fill="#000000" stroke="none">
<path d="M2360 5114 c-762 -71 -1409 -430 -1857 -1029 -251 -335 -412 -729
-480 -1172 -23 -150 -23 -546 0 -696 108 -704 454 -1286 1012 -1704 334 -250
729 -412 1172 -480 150 -23 546 -23 696 0 703 108 1288 455 1704 1012 252 336
412 728 480 1172 23 150 23 546 0 696 -55 355 -162 663 -334 952 -397 670
-1065 1116 -1845 1231 -100 14 -458 26 -548 18z m1500 -2129 l0 -1225 -74 0
c-47 0 -78 -4 -82 -12 -4 -6 -6 -106 -5 -221 2 -166 0 -212 -11 -218 -7 -5
-151 -9 -319 -9 -242 0 -309 -3 -318 -13 -6 -8 -12 -80 -13 -188 -3 -204 -3
-202 -99 -142 -33 21 -87 55 -120 75 -58 37 -102 48 -114 29 -3 -6 -45 -33
-94 -60 -49 -28 -94 -58 -101 -66 -15 -18 -46 -20 -56 -4 -4 6 -6 81 -5 166 2
126 -1 159 -13 178 l-16 24 -462 3 c-443 3 -464 4 -498 23 -103 60 -147 113
-174 215 -16 60 -17 156 -14 1245 3 1100 5 1184 21 1232 23 67 85 135 150 167
l52 25 1183 1 1182 0 0 -1225z"/>
<path d="M1810 4057 l-25 -13 0 -1055 c0 -880 2 -1059 14 -1072 12 -16 91 -17
947 -17 l933 0 15 22 c14 20 16 138 16 1068 0 641 -4 1051 -10 1060 -8 13
-125 15 -937 17 -738 2 -933 0 -953 -10z m647 -477 c14 -11 31 -20 38 -20 7 0
18 -7 25 -15 7 -8 23 -15 35 -15 12 0 28 7 35 15 7 8 18 15 25 15 7 0 24 9 38
20 19 15 40 20 92 20 58 0 74 -4 126 -35 33 -19 64 -35 69 -35 4 0 36 16 70
35 54 30 71 35 130 35 47 0 71 -4 80 -15 6 -8 22 -17 33 -21 23 -7 90 -54 95
-66 2 -4 15 -24 30 -45 23 -35 26 -47 26 -139 0 -89 -2 -104 -22 -129 -12 -15
-22 -33 -22 -40 0 -7 -24 -29 -54 -49 -35 -23 -56 -45 -60 -62 -4 -15 -6 -115
-5 -222 2 -179 0 -196 -16 -209 -26 -18 -935 -19 -953 -1 -9 9 -12 73 -12 225
0 234 6 212 -68 270 -84 65 -124 173 -102 272 7 30 19 67 28 81 23 37 94 110
108 110 6 0 22 9 35 20 35 28 160 29 196 0z m789 -1205 c3 -8 -3 -29 -13 -47
l-19 -33 -459 -5 c-372 -4 -461 -3 -472 8 -13 14 -18 74 -6 85 3 4 222 7 485
7 414 0 479 -2 484 -15z"/>
<path d="M1498 1727 c-54 -41 -81 -90 -74 -136 7 -44 43 -97 84 -121 32 -19
53 -20 467 -20 480 0 465 -2 465 64 0 65 6 66 307 66 299 0 292 2 298 -65 6
-65 4 -65 245 -65 274 0 255 -14 252 177 -2 77 -6 105 -18 117 -14 14 -118 16
-999 16 l-983 0 -44 -33z"/>
</g>
</svg>
